<?xml version="1.0" standalone="no"?>
<!DOCTYPE svg PUBLIC "-//W3C//DTD SVG 20010904//EN"
 "http://www.w3.org/TR/2001/REC-SVG-20010904/DTD/svg10.dtd">
<svg version="1.0" xmlns="http://www.w3.org/2000/svg"
 width="225.000000pt" height="225.000000pt" viewBox="0 0 225.000000 225.000000"
 preserveAspectRatio="xMidYMid meet">

<g transform="translate(0.000000,225.000000) scale(0.100000,-0.100000)"
fill="#000000" stroke="none">
<path d="M1053 2194 c-41 -28 -104 -56 -190 -84 -197 -66 -267 -107 -308 -184
-16 -30 -27 -37 -70 -46 -73 -15 -136 -68 -232 -195 -93 -123 -152 -188 -201
-225 l-32 -25 17 -45 c11 -32 18 -98 23 -225 4 -99 11 -198 15 -220 10 -50 46
-124 73 -148 17 -16 20 -27 15 -71 -8 -78 17 -141 111 -281 104 -153 136 -210
151 -260 10 -33 17 -40 36 -38 54 3 164 -19 285 -57 165 -53 229 -59 312 -31
60 21 63 21 89 4 21 -14 47 -18 118 -17 76 0 111 7 225 42 126 39 185 52 269
55 30 2 35 6 46 42 18 62 51 122 125 225 105 148 124 191 129 284 3 68 7 83
28 105 32 33 60 95 68 146 3 22 10 123 14 225 6 135 13 196 25 225 17 39 17
40 -6 55 -54 35 -107 93 -199 215 -53 72 -114 143 -133 158 -44 34 -96 57
-130 57 -16 0 -27 7 -31 21 -12 35 -86 109 -135 134 -25 12 -99 42 -165 65
-128 45 -201 79 -250 114 l-30 22 -62 -42z m114 -94 c26 -16 106 -50 177 -75
203 -71 266 -115 282 -193 6 -30 9 -32 51 -32 88 0 126 -31 262 -213 40 -54
94 -116 120 -138 l48 -41 -14 -52 c-7 -28 -16 -123 -19 -211 -8 -215 -25 -272
-96 -319 -25 -17 -26 -19 -12 -51 31 -75 11 -131 -117 -320 -52 -77 -100 -158
-107 -181 l-12 -41 -72 -6 c-40 -3 -125 -22 -188 -42 -175 -56 -287 -58 -335
-5 -17 19 -18 19 -53 -8 -32 -25 -43 -27 -121 -27 -72 1 -106 7 -206 39 -67
22 -149 41 -187 44 l-66 5 -17 46 c-10 25 -61 111 -114 191 -126 188 -139 233
-96 333 5 12 3 17 -8 17 -25 0 -76 61 -93 112 -10 32 -18 109 -24 230 -4 101
-13 195 -19 211 -10 26 -7 31 52 90 35 34 94 103 131 154 105 144 183 200 259
186 20 -4 25 0 30 26 16 80 74 121 267 191 80 28 165 64 190 81 25 16 48 29
52 29 4 0 28 -13 55 -30z"/>
<path d="M1105 2101 c-9 -15 -150 -79 -234 -105 -154 -50 -222 -96 -241 -165
-5 -20 -10 -40 -10 -46 0 -6 -28 -10 -64 -10 -57 0 -69 -4 -103 -31 -21 -17
-75 -80 -121 -140 -45 -60 -105 -131 -133 -158 l-51 -49 12 -46 c6 -25 14
-113 16 -196 3 -82 10 -172 16 -199 10 -47 58 -116 82 -116 6 0 17 -4 25 -9
12 -8 12 -14 -4 -38 -45 -68 -19 -145 116 -345 42 -62 83 -130 90 -150 12 -34
17 -38 58 -43 50 -6 150 -31 280 -70 132 -40 205 -31 253 30 l20 25 21 -26
c46 -59 127 -68 258 -29 131 39 230 64 282 70 26 4 47 11 47 18 0 25 148 268
181 297 3 3 15 26 27 52 26 55 29 135 7 164 -18 24 -19 44 -1 44 24 0 78 52
94 90 10 24 17 92 23 216 4 99 12 199 18 221 l11 41 -50 49 c-28 26 -88 98
-133 158 -54 72 -100 122 -132 144 -45 30 -55 33 -102 28 -51 -5 -53 -5 -53
19 0 32 -26 84 -54 107 -36 30 -106 62 -225 103 -63 21 -138 53 -167 70 -30
18 -56 29 -59 25z m25 -651 c0 -4 14 -6 30 -5 17 1 30 -2 30 -7 0 -5 4 -7 9
-4 12 8 101 -24 101 -35 0 -5 8 -9 18 -10 10 0 12 -3 5 -6 -17 -6 -85 16 -79
26 3 4 -8 8 -24 9 -50 3 -60 5 -60 11 0 4 -17 6 -37 5 -21 -1 -38 -3 -38 -4 0
-1 -8 -3 -17 -5 -10 -2 -18 2 -18 8 0 6 -7 2 -15 -9 -8 -10 -15 -15 -15 -10 0
5 -7 3 -15 -4 -8 -7 -15 -9 -15 -4 0 5 -5 2 -11 -6 -8 -12 -10 -11 -7 5 2 11
9 21 16 21 6 1 14 3 17 4 3 1 10 4 15 5 6 1 11 3 13 5 9 7 37 6 37 -2 0 -5 6
-3 14 5 14 14 46 19 46 7z m-186 -75 c-13 -9 -20 -10 -23 -3 -2 6 5 17 15 25
13 9 20 10 22 3 2 -6 -4 -17 -14 -25z m-37 -27 c-3 -7 -5 -2 -5 12 0 14 2 19
5 13 2 -7 2 -19 0 -25z m-20 -15 c-3 -10 -5 -4 -5 12 0 17 2 24 5 18 2 -7 2
-21 0 -30z m456 30 c-7 -2 -19 -2 -25 0 -7 3 -2 5 12 5 14 0 19 -2 13 -5z m20
-20 c-7 -2 -19 -2 -25 0 -7 3 -2 5 12 5 14 0 19 -2 13 -5z m-497 -39 c-4 -14
-10 -23 -13 -20 -8 7 -41 -75 -48 -119 -11 -62 -11 -70 -2 -82 6 -9 5 -13 -3
-13 -10 0 -10 -3 0 -15 7 -8 9 -15 5 -15 -4 0 -2 -7 5 -15 7 -8 9 -15 4 -15
-5 0 -2 -5 6 -11 12 -8 11 -10 -5 -7 -11 2 -21 9 -21 16 -1 6 -3 13 -4 15 -1
1 -3 13 -4 27 -1 14 -5 31 -9 38 -5 6 -5 12 0 12 4 0 8 19 8 43 -1 53 23 129
38 120 6 -4 8 0 4 10 -3 10 -2 17 3 17 6 0 10 8 10 18 0 14 2 15 10 2 8 -12
10 -10 10 9 0 13 3 22 6 18 4 -3 3 -18 0 -33z m517 19 c-7 -2 -19 -2 -25 0 -7
3 -2 5 12 5 14 0 19 -2 13 -5z m17 -27 c-1 -5 4 -13 12 -17 10 -7 10 -9 -2 -9
-8 0 -21 9 -28 21 -11 18 -11 20 3 17 9 -1 15 -7 15 -12z m-440 -11 c0 -8 -7
-15 -15 -15 -26 0 -18 20 13 29 1 1 2 -6 2 -14z m345 -5 c3 -5 1 -10 -4 -10
-6 0 -11 5 -11 10 0 6 2 10 4 10 3 0 8 -4 11 -10z m-315 -10 c0 -5 -4 -10 -10
-10 -5 0 -10 5 -10 10 0 6 5 10 10 10 6 0 10 -4 10 -10z m65 -20 c3 -5 1 -10
-4 -10 -6 0 -11 5 -11 10 0 6 2 10 4 10 3 0 8 -4 11 -10z m273 -2 c17 -17 15
-35 -4 -42 -20 -8 -21 -8 -29 27 -8 29 10 38 33 15z m97 2 c3 -5 2 -10 -4 -10
-5 0 -13 5 -16 10 -3 6 -2 10 4 10 5 0 13 -4 16 -10z m-295 -40 c0 -11 5 -20
10 -20 6 0 10 6 10 13 0 8 4 7 10 -3 8 -12 10 -11 10 8 0 12 5 22 10 22 11 0
54 -40 48 -44 -1 -2 -37 -8 -78 -14 l-75 -10 76 2 76 3 2 -50 2 -50 -35 6
c-20 3 -36 2 -36 -4 0 -5 16 -9 35 -9 19 0 35 -4 35 -9 0 -5 8 -7 18 -4 10 2
24 -2 30 -10 13 -15 6 -47 -10 -47 -5 0 -7 -4 -4 -9 9 -14 -27 -52 -41 -43
-17 11 -4 52 16 52 10 0 12 3 5 8 -6 4 -14 14 -17 22 -4 12 -6 11 -6 -2 -1
-10 -6 -18 -12 -18 -5 0 -7 -5 -4 -10 12 -20 -5 -48 -26 -43 -15 4 -18 11 -13
27 4 11 12 24 18 28 8 6 7 8 -1 8 -7 0 -14 10 -14 23 l-2 22 -4 -22 c-4 -20
-11 -23 -49 -23 l-44 0 0 110 0 110 30 0 c23 0 30 -4 30 -20z m160 0 c0 -13
-7 -20 -20 -20 -11 0 -20 2 -20 4 0 2 -3 11 -6 20 -5 12 0 16 20 16 19 0 26
-5 26 -20z m147 8 c4 -7 9 -24 9 -38 1 -14 3 -27 4 -30 7 -13 4 -110 -3 -110
-4 0 -6 -4 -3 -8 3 -5 0 -25 -6 -46 -8 -26 -14 -33 -21 -24 -6 9 -7 6 -4 -9 3
-13 1 -23 -4 -23 -5 0 -9 -8 -9 -17 0 -15 -2 -15 -9 -4 -7 11 -10 9 -14 -10
-4 -22 -4 -22 -6 -2 0 12 5 28 13 35 7 8 17 24 20 36 4 12 11 20 16 17 5 -3 7
10 6 30 -2 19 0 33 4 30 9 -5 5 98 -4 113 -4 7 -2 12 5 12 8 0 8 4 -1 15 -7 8
-9 15 -5 15 4 0 2 7 -5 15 -8 9 -9 15 -2 15 6 0 14 -6 19 -12z m-377 -79 c0
-39 -4 -69 -10 -69 -5 0 -10 8 -10 18 -1 16 -1 16 -14 0 -7 -10 -16 -18 -20
-18 -11 0 -6 18 10 34 8 9 11 16 5 16 -19 0 -12 29 9 42 20 13 20 13 0 28 -19
15 -19 15 5 16 24 2 25 0 25 -67z m291 54 c4 -24 6 -105 2 -90 -5 20 -19 23
-26 5 -3 -8 -6 -6 -6 5 -1 19 -16 23 -26 7 -3 -5 0 -10 7 -10 7 0 1 -11 -14
-25 -35 -33 -50 -32 -46 3 2 18 8 27 20 26 10 -1 15 2 12 7 -3 5 -12 9 -20 9
-8 0 -14 10 -14 24 0 19 6 25 31 28 28 4 30 2 26 -18 -2 -13 0 -21 4 -18 5 3
9 13 9 23 0 10 3 21 7 24 9 9 33 9 34 0z m-446 -60 c4 -21 11 -55 17 -76 9
-38 10 -38 33 -23 33 22 42 20 47 -8 4 -20 0 -26 -20 -31 -16 -4 -28 -1 -33 7
-7 10 -9 9 -9 -4 0 -25 -22 -22 -39 3 -11 18 -11 23 1 30 10 7 9 9 -4 9 -10 0
-18 6 -19 13 0 6 -3 36 -5 65 -4 42 -2 52 10 52 10 0 17 -14 21 -37z m155 -97
c0 -13 -6 -27 -12 -29 -8 -3 -6 -6 5 -6 11 -1 17 -9 17 -25 0 -29 -26 -41 -39
-18 -9 15 -10 15 -11 1 0 -28 -27 -30 -44 -4 -15 22 -14 24 4 30 11 3 24 4 29
0 5 -3 12 -1 15 4 4 5 2 12 -4 16 -5 3 -10 17 -10 31 0 19 5 24 25 24 20 0 25
-5 25 -24z m269 -5 c19 -12 7 -39 -21 -51 -14 -5 -17 -9 -8 -10 9 0 0 -14 -24
-35 -39 -35 -64 -46 -50 -22 4 6 -1 5 -12 -4 -37 -31 -47 -32 -28 -5 12 20 23
26 38 22 24 -6 59 38 71 87 8 29 12 32 34 18z m-169 -40 c0 -28 -14 -41 -46
-41 -30 0 -34 3 -34 25 0 23 4 25 40 25 22 0 40 -4 40 -9z m-325 -21 c3 -5 0
-10 -7 -11 -8 0 -9 -2 -2 -5 20 -8 122 -113 116 -118 -10 -10 -33 -6 -27 4 3
6 1 10 -5 10 -6 0 -18 6 -26 14 -11 11 -11 16 -1 19 6 3 2 6 -9 6 -20 1 -40
25 -36 44 1 4 -2 7 -8 7 -5 0 -14 9 -20 20 -8 16 -8 20 4 20 8 0 18 -4 21 -10z
m157 -49 c8 -10 13 -11 16 -3 6 19 26 14 41 -9 12 -20 11 -21 -6 -15 -10 4
-26 9 -36 11 -21 5 -77 43 -77 54 0 20 17 20 32 -1 10 -13 23 -29 30 -37z m88
5 c0 -8 3 -23 7 -33 6 -17 5 -17 -15 1 -25 22 -29 46 -7 46 8 0 15 -6 15 -14z
m65 -13 l-5 -28 11 28 c6 15 17 27 25 27 21 0 17 -14 -11 -40 -14 -13 -25 -20
-25 -16 0 5 -6 3 -14 -3 -12 -10 -17 -8 -25 8 -19 35 -13 51 19 51 28 0 30 -2
25 -27z m212 -45 c-3 -7 -5 -2 -5 12 0 14 2 19 5 13 2 -7 2 -19 0 -25z m-31
-30 c-8 -5 -19 -8 -22 -8 -4 1 -11 -4 -15 -12 -7 -10 -9 -9 -9 3 0 16 26 34
43 31 4 -1 8 6 8 16 1 15 2 14 6 -2 3 -11 -2 -23 -11 -28z m-300 3 c8 7 14 7
14 2 0 -6 14 -9 30 -7 l31 4 -28 -35 c-15 -19 -30 -31 -33 -27 -3 4 -17 7 -33
7 -15 -1 -26 4 -24 10 5 13 50 14 58 2 4 -6 11 -1 17 9 9 17 6 19 -26 18 -48
-2 -43 0 -75 -30 -15 -14 -25 -29 -22 -35 4 -5 1 -9 -6 -9 -9 0 -9 -3 0 -14 9
-11 8 -15 -6 -20 -10 -4 -14 -4 -10 0 4 4 2 13 -4 21 -8 9 -8 13 -1 13 7 0 9
7 5 17 -5 11 -3 14 6 8 10 -6 11 -2 6 15 -4 14 -3 20 3 16 5 -3 13 1 16 10 3
8 10 12 16 9 5 -3 10 -1 10 5 0 6 4 9 9 5 5 -3 13 0 17 7 6 9 9 9 12 0 3 -10
7 -10 18 -1z m165 -18 c-8 -15 -10 -15 -11 -2 0 17 10 32 18 25 2 -3 -1 -13
-7 -23z m63 15 c-3 -5 -12 -7 -20 -4 -8 3 -14 1 -14 -4 0 -6 -4 -10 -10 -10
-5 0 -7 6 -4 14 3 7 16 14 29 14 14 0 22 -5 19 -10z m-92 -20 c-7 -7 -12 -8
-12 -2 0 14 12 26 19 19 2 -3 -1 -11 -7 -17z m-51 -15 c-6 -10 -11 -14 -11 -9
0 5 -7 3 -15 -4 -9 -8 -15 -9 -15 -2 0 12 41 44 48 38 2 -3 -1 -13 -7 -23z
m29 12 c0 -8 -4 -15 -10 -15 -5 0 -7 7 -4 15 4 8 8 15 10 15 2 0 4 -7 4 -15z
m121 -18 c-8 -8 -11 -7 -11 4 0 20 13 34 18 19 3 -7 -1 -17 -7 -23z m-23 1
c-2 -5 -8 -10 -13 -10 -6 0 -20 -4 -32 -9 -26 -9 -56 -2 -47 12 3 5 16 7 29 5
14 -3 27 -1 29 3 7 11 37 10 34 -1z m77 -8 c-3 -5 0 -10 7 -11 11 0 11 -2 0
-6 -10 -4 -9 -8 5 -19 10 -7 13 -14 6 -14 -16 0 -43 28 -43 46 0 8 7 14 16 14
8 0 12 -4 9 -10z m13 -70 c3 -8 0 -10 -8 -5 -9 5 -10 2 -5 -15 5 -15 4 -20 -4
-16 -6 4 -11 2 -11 -3 0 -6 -6 -11 -14 -11 -8 0 -17 -6 -19 -12 -3 -7 -6 -3
-6 9 -1 13 7 24 19 28 11 4 18 11 15 16 -4 5 -1 9 5 9 6 0 8 5 4 11 -4 7 -1
10 6 7 8 -2 16 -10 18 -18z m-253 -1 c20 0 20 -1 1 -14 -10 -8 -23 -12 -29 -8
-16 10 -67 11 -67 2 0 -5 -6 -9 -14 -9 -8 0 -17 -4 -20 -9 -3 -5 4 -9 17 -9
12 0 41 -2 64 -4 23 -3 44 -1 45 4 2 5 13 10 26 11 12 0 22 7 22 13 0 6 9 14
20 17 11 3 20 0 20 -6 0 -9 2 -9 8 -1 6 9 31 11 85 5 5 -1 6 -5 3 -10 -3 -5
-28 -8 -56 -7 -30 2 -50 -2 -50 -8 0 -6 -5 -4 -10 4 -8 13 -10 12 -10 -2 0
-16 -11 -21 -36 -17 -4 0 -10 -4 -14 -10 -8 -14 -70 -23 -70 -11 0 5 -6 7 -13
4 -8 -3 -26 0 -40 5 -23 9 -31 7 -48 -10 -11 -11 -25 -17 -31 -13 -7 4 -8 3
-4 -5 4 -6 12 -9 17 -5 6 3 5 -3 -2 -14 -10 -16 -16 -18 -31 -8 -18 10 -18 12
7 33 14 12 25 28 26 35 0 10 2 10 6 0 4 -10 9 -7 17 10 7 12 18 22 24 21 7 -2
12 3 12 10 0 8 4 7 10 -3 6 -9 10 -10 10 -3 0 14 26 21 60 16 14 -2 34 -4 45
-4z m91 -48 c-8 -12 67 -8 76 4 5 6 8 3 8 -7 0 -9 -4 -20 -10 -23 -5 -3 -10
-1 -10 6 0 8 -4 8 -15 -1 -8 -7 -15 -8 -15 -3 0 5 -13 8 -30 7 -30 -2 -41 10
-17 19 18 8 19 8 13 -2z m187 -36 c26 -23 27 -26 12 -41 -19 -20 -24 -16 -27
19 -1 15 -8 27 -15 27 -6 0 -15 5 -18 10 -12 19 20 9 48 -15z"/>
<path d="M1160 1120 c0 -5 5 -10 10 -10 6 0 10 5 10 10 0 6 -4 10 -10 10 -5 0
-10 -4 -10 -10z"/>
<path d="M1103 1073 c9 -2 23 -2 30 0 6 3 -1 5 -18 5 -16 0 -22 -2 -12 -5z"/>
<path d="M1261 1161 c-10 -6 -10 -10 -1 -16 13 -8 24 -1 19 14 -3 6 -10 7 -18
2z"/>
</g>
</svg>
